{"title":"Apollo 18 (2011) R5 NL subs DutchReleaseTeam [Horror&amp;SciFi]","uid":6790784,"size":741551480,"categoryP":"video","categoryS":"movies","magnet":"?xt=urn:btih:d0c0e89f022f4d7e7306d0a15f0396b693de4e03&amp;dn=Apollo+18+%282011%29+R5+NL+subs+DutchReleaseTeam+%5BHorror%26amp%3BSciFi%5D&amp;tr=udp%3A%2F%2Ftracker.openbittorrent.com%3A80&amp;tr=udp%3A%2F%2Fopen.demonii.com%3A1337&amp;tr=udp%3A%2F%2Ftracker.coppersurfer.tk%3A6969&amp;tr=udp%3A%2F%2Fexodus.desync.com%3A6969","seeders":0,"leechers":1,"uploader":"Koedje","files":-1,"time":1320256463,"description":" &lt;a href=&quot;http://img215.imageshack.us/img215/9427/apollo18.jpg&quot; rel=&quot;nofollow&quot; target=&quot;_NEW&quot;&gt;http://img215.imageshack.us/img215/9427/apollo18.jpg&lt;/a&gt;\n\n\nVerenigde Staten / Canada\nHorror / Sciencefiction\n88 minuten\n\ngeregisseerd door Gonzalo LÃƒÂ³pez-Gallego\nmet Warren Christie, Lloyd Owen en Ryan Robbins\n\n'Apollo 18' is een film in documentaire-stijl over het &quot;waargebeurde&quot; verhaal van NASA's geheime achttiende vlucht met een Apollo raket naar de maan. De astronauten zijn geschokt wanneer ze buitenaards leven ontdekken tijdens hun missie. Hierna besluit de Amerikaanse overheid de missie geheim te houden voor de buitenwereld.\n\n\nVertaald door Simply ReleaseS Toppers\nTokke en Suurtje\n\n\n\n\n\nScreenshots:\n &lt;a href=&quot;\nhttp://img267.imageshack.us/img267/3718/screenshot1nd.jpg&quot; rel=&quot;nofollow&quot; target=&quot;_NEW&quot;&gt;\nhttp://img267.imageshack.us/img267/3718/screenshot1nd.jpg&lt;/a&gt;\n &lt;a href=&quot;\nhttp://img231.imageshack.us/img231/4048/screenshot2ky.jpg&quot; rel=&quot;nofollow&quot; target=&quot;_NEW&quot;&gt;\nhttp://img231.imageshack.us/img231/4048/screenshot2ky.jpg&lt;/a&gt;\n &lt;a href=&quot;\nhttp://img684.imageshack.us/img684/2586/screenshot3fzj.jpg&quot; rel=&quot;nofollow&quot; target=&quot;_NEW&quot;&gt;\nhttp://img684.imageshack.us/img684/2586/screenshot3fzj.jpg&lt;/a&gt;\n &lt;a href=&quot;\nhttp://img836.imageshack.us/img836/2366/screenshot4jn.jpg&quot; rel=&quot;nofollow&quot; target=&quot;_NEW&quot;&gt;\nhttp://img836.imageshack.us/img836/2366/screenshot4jn.jpg&lt;/a&gt;\n\n\n\nINFO;\n\n\nVideo\nID                                       : 0\nFormat                                   : MPEG-4 Visual\nFormat profile                           : Advanced Simple@L5\nFormat settings, BVOP                    : 1\nFormat settings, QPel                    : No\nFormat settings, GMC                     : No warppoints\nFormat settings, Matrix                  : Custom\nCodec ID                                 : XVID\nCodec ID/Hint                            : XviD\nDuration                                 : 1h 23mn\nBit rate                                 : 1 062 Kbps\nWidth                                    : 608 pixels\nHeight                                   : 352 pixels\nDisplay aspect ratio                     : 16:9\nFrame rate                               : 25.000 fps\nColor space                              : YUV\nChroma subsampling                       : 4:2:0\nBit depth                                : 8 bits\nScan type                                : Progressive\nCompression mode                         : Lossy\nBits/(Pixel*Frame)                       : 0.199\nStream size                              : 632 MiB (90%)\nWriting library                          : XviD 64\n\nAudio\nID                                       : 1\nFormat                                   : MPEG Audio\nFormat version                           : Version 1\nFormat profile                           : Layer 3\nMode                                     : Joint stereo\nMode extension                           : MS Stereo\nCodec ID                                 : 55\nCodec ID/Hint                            : MP3\nDuration                                 : 1h 23mn\nBit rate mode                            : Variable\nBit rate                                 : 102 Kbps\nNominal bit rate                         : 128 Kbps\nChannel(s)                               : 2 channels\nSampling rate                            : 48.0 KHz\nCompression mode                         : Lossy\nStream size                              : 60.5 MiB (9%)\nAlignment                                : Aligned on interleaves\nInterleave, duration                     : 24 ms (0.60 video frame)\nInterleave, preload duration             : 458 ms\n\n\n\n &lt;a href=&quot;\nhttp://www.imdb.com/title/tt1772240/&quot; rel=&quot;nofollow&quot; target=&quot;_NEW&quot;&gt;\nhttp://www.imdb.com/title/tt1772240/&lt;/a&gt; &lt;a href=&quot;\nhttp://www.moviemeter.nl/film/72744&quot; rel=&quot;nofollow&quot; target=&quot;_NEW&quot;&gt;\nhttp://www.moviemeter.nl/film/72744&lt;/a&gt;\n\n\n\n\nDeze film wordt u aangeboden door het DutchReleaseTeam.\nVoor de reviews van de nieuwste films, muziek, series, games etc\nga dan eens naar http://www.hetmultimediacafe.be\n\nDutchReleaseteam = Hardcoded Dutch Subs","torrent":{"xt":"urn:btih:d0c0e89f022f4d7e7306d0a15f0396b693de4e03","amp;dn":"Apollo+18+%282011%29+R5+NL+subs+DutchReleaseTeam+%5BHorror%26amp%3BSciFi%5D","amp;tr":["udp%3A%2F%2Ftracker.openbittorrent.com%3A80","udp%3A%2F%2Fopen.demonii.com%3A1337","udp%3A%2F%2Ftracker.coppersurfer.tk%3A6969","udp%3A%2F%2Fexodus.desync.com%3A6969"],"infoHash":"d0c0e89f022f4d7e7306d0a15f0396b693de4e03","infoHashBuffer":{"type":"Buffer","data":[208,192,232,159,2,47,77,126,115,6,208,161,95,3,150,182,147,222,78,3]},"announce":[],"urlList":[]}}